<?xml version="1.0" encoding="UTF-8" standalone="no"?>
<!DOCTYPE svg PUBLIC "-//W3C//DTD SVG 1.1//EN" "http://www.w3.org/Graphics/SVG/1.1/DTD/svg11.dtd">
<svg width="100%" height="100%" viewBox="0 0 5206 2433" version="1.1" xmlns="http://www.w3.org/2000/svg" xmlns:xlink="http://www.w3.org/1999/xlink" xml:space="preserve" xmlns:serif="http://www.serif.com/" style="fill-rule:evenodd;clip-rule:evenodd;stroke-linejoin:round;stroke-miterlimit:2;">
    <g transform="matrix(1.02877,0,0,0.792608,-495.018,-165.396)">
        <g transform="matrix(1308.1,0,0,1308.1,5330.94,1483)">
        </g>
        <text x="736px" y="1483px" style="font-family:'GillSansMT-ExtraCondensedBold', 'Gill Sans MT Ext Condensed Bold', sans-serif;font-stretch:extra-condensed;font-size:1308.1px;fill:rgb(22,106,197);stroke:white;stroke-width:12.67px;">TRANSP<tspan x="3028.36px 3437.14px " y="1483px 1483px ">AR</tspan>ENCY</text>
    </g>
    <g transform="matrix(1.41203,0,0,1.41203,-528.917,-1255.51)">
        <g transform="matrix(1455.71,0,0,1455.71,3935.07,2553)">
        </g>
        <text x="468px" y="2553px" style="font-family:'TwCenMT-Bold', 'Tw Cen MT', sans-serif;font-weight:700;font-size:1455.71px;fill:rgb(22,106,197);stroke:white;stroke-width:30.59px;">C<tspan x="1211.88px 1494.45px 2162.28px 2754.76px 3237.78px " y="2553px 2553px 2553px 2553px 2553px "> heck</tspan></text>
        <g transform="matrix(1,0,0,1,7.082,-41.0756)">
            <path d="M1039,1920L779.35,2069.77L1058.85,2373.62L1765,1678L1522.87,1574.21L1097.27,2126.16L1039,1920Z" style="fill:rgb(224,0,0);stroke:white;stroke-width:26.94px;stroke-linecap:round;stroke-miterlimit:1.5;"/>
        </g>
    </g>
</svg>
